<svg width="30" height="30" viewBox="0 0 30 30" fill="none" xmlns="http://www.w3.org/2000/svg">
<path d="M15 3.21429C19.939 3.21429 23.9599 7.14535 24.1045 12.0493L24.1085 12.3228L24.1082 17.2639L25.6233 21.1682C25.6642 21.2737 25.6918 21.3836 25.7057 21.4954L25.7161 21.6643C25.7161 22.3744 25.1765 22.9584 24.4849 23.0286L24.3447 23.0357L18.7516 23.0369C18.7516 25.1088 17.0719 26.7884 15 26.7884C12.9972 26.7884 11.3609 25.2189 11.254 23.2427L11.2484 23.0347L5.65158 23.0357C5.48154 23.0357 5.31298 23.0041 5.1545 22.9425C4.4927 22.6851 4.14398 21.9704 4.32919 21.3005L4.37341 21.1672L5.89074 17.2629L5.89155 12.3228C5.89155 7.2923 9.96955 3.21429 15 3.21429ZM17.1385 23.1969L17.1434 23.0347L12.8556 23.0369C12.8556 24.2212 13.8157 25.1812 15 25.1812C16.1305 25.1812 17.0567 24.3065 17.1385 23.1969ZM15 4.82144C10.9435 4.82144 7.63897 8.04142 7.50304 12.0649L7.49869 12.3228V17.4143C7.49869 17.4808 7.49046 17.5468 7.47426 17.6109L7.44405 17.7056L5.99574 21.4275H24L22.5558 17.705C22.5318 17.6432 22.5156 17.5788 22.5075 17.5133L22.5014 17.4143V12.3228C22.5014 8.1799 19.1429 4.82144 15 4.82144Z" fill="black"/>
</svg>
