<svg width="24" height="24" viewBox="0 0 24 24" fill="none" xmlns="http://www.w3.org/2000/svg">
<path d="M3.35355 8.85352C3.15829 9.04879 2.84171 9.04879 2.64645 8.85352C2.45118 8.65826 2.45118 8.34168 2.64645 8.14642L5.93934 4.85352C6.52513 4.26774 7.47487 4.26774 8.06066 4.85352L11.3536 8.14642C11.5488 8.34168 11.5488 8.65826 11.3536 8.85352C11.1583 9.04879 10.8417 9.04879 10.6464 8.85352L7.5 5.70708V19C7.5 19.2761 7.27614 19.5 7 19.5C6.72386 19.5 6.5 19.2761 6.5 19V5.70708L3.35355 8.85352Z" fill="#212121"/>
<path d="M17.5 5C17.5 4.72386 17.2761 4.5 17 4.5C16.7239 4.5 16.5 4.72386 16.5 5V18.2929L13.3536 15.1464C13.1583 14.9512 12.8417 14.9512 12.6464 15.1464C12.4512 15.3417 12.4512 15.6583 12.6464 15.8536L15.9393 19.1464C16.5251 19.7322 17.4749 19.7322 18.0607 19.1464L21.3536 15.8536C21.5488 15.6583 21.5488 15.3417 21.3536 15.1464C21.1583 14.9512 20.8417 14.9512 20.6464 15.1464L17.5 18.2929V5Z" fill="#212121"/>
</svg>
