<svg width="24" height="24" viewBox="0 0 24 24" fill="none" xmlns="http://www.w3.org/2000/svg">
<path fill-rule="evenodd" clip-rule="evenodd" d="M12.3162 20.8946C12.111 20.963 11.889 20.963 11.6838 20.8946L9.9237 20.3079C9.3119 20.104 8.67123 20 8.02633 20H4.5C3.11929 20 2 18.8807 2 17.5V6.5C2 5.11929 3.11929 4 4.5 4H9.5C10.5435 4 11.4625 4.53276 12 5.34111C12.5375 4.53276 13.4565 4 14.5 4H19.5C20.8807 4 22 5.11929 22 6.5V17.5C22 18.8807 20.8807 20 19.5 20H15.9737C15.3288 20 14.6881 20.104 14.0763 20.3079L12.3162 20.8946ZM4.5 5H9.5C10.6046 5 11.5 5.89543 11.5 7V19.7639L11.4934 19.7771L10.2399 19.3592C9.52616 19.1213 8.77871 19 8.02633 19H4.5C3.67157 19 3 18.3284 3 17.5V6.5C3 5.67157 3.67157 5 4.5 5ZM12.5 19.7639L12.5066 19.7771L13.7601 19.3592C14.4738 19.1213 15.2213 19 15.9737 19H19.5C20.3284 19 21 18.3284 21 17.5V6.5C21 5.67157 20.3284 5 19.5 5H14.5C13.3954 5 12.5 5.89543 12.5 7V19.7639Z" fill="#212121"/>
</svg>
