<svg width="24" height="24" viewBox="0 0 24 24" fill="none" xmlns="http://www.w3.org/2000/svg">
<path fill-rule="evenodd" clip-rule="evenodd" d="M2 4C2 3.72386 2.22386 3.5 2.5 3.5H2.93845C4.08562 3.5 5.08557 4.28074 5.3638 5.39366L5.64039 6.5H18.0068C19.6061 6.5 20.7942 7.98104 20.4472 9.54233L19.3361 14.5423C19.0819 15.6862 18.0674 16.5 16.8957 16.5H9.06155C7.91438 16.5 6.91443 15.7193 6.6362 14.6063L4.39366 5.6362C4.22672 4.96845 3.62675 4.5 2.93845 4.5H2.5C2.22386 4.5 2 4.27614 2 4ZM5.89039 7.5L7.60634 14.3638C7.77328 15.0316 8.37325 15.5 9.06155 15.5H16.8957C17.5987 15.5 18.2074 15.0117 18.3599 14.3254L19.471 9.3254C19.6792 8.38863 18.9664 7.5 18.0068 7.5H5.89039Z" fill="#212121"/>
<path fill-rule="evenodd" clip-rule="evenodd" d="M9 20C9.27614 20 9.5 19.7761 9.5 19.5C9.5 19.2239 9.27614 19 9 19C8.72386 19 8.5 19.2239 8.5 19.5C8.5 19.7761 8.72386 20 9 20ZM10.5 19.5C10.5 20.3284 9.82843 21 9 21C8.17157 21 7.5 20.3284 7.5 19.5C7.5 18.6716 8.17157 18 9 18C9.82843 18 10.5 18.6716 10.5 19.5Z" fill="#212121"/>
<path fill-rule="evenodd" clip-rule="evenodd" d="M17 20C17.2761 20 17.5 19.7761 17.5 19.5C17.5 19.2239 17.2761 19 17 19C16.7239 19 16.5 19.2239 16.5 19.5C16.5 19.7761 16.7239 20 17 20ZM18.5 19.5C18.5 20.3284 17.8284 21 17 21C16.1716 21 15.5 20.3284 15.5 19.5C15.5 18.6716 16.1716 18 17 18C17.8284 18 18.5 18.6716 18.5 19.5Z" fill="#212121"/>
</svg>
