<?xml version="1.0" encoding="iso-8859-1"?>
<!-- Generator: Adobe Illustrator 19.0.0, SVG Export Plug-In . SVG Version: 6.00 Build 0)  -->
<svg version="1.1" id="Layer_1" xmlns="http://www.w3.org/2000/svg" xmlns:xlink="http://www.w3.org/1999/xlink" x="0px" y="0px"
	 viewBox="0 0 512 512" style="enable-background:new 0 0 512 512;" xml:space="preserve">
<g>
	<g>
		<circle cx="205.855" cy="138.491" r="7.837"/>
	</g>
</g>
<g>
	<g>
		<circle cx="309.289" cy="141.27" r="7.837"/>
	</g>
</g>
<g>
	<g>
		<path d="M290.402,180.388l-17.012-17.012c-4.645-4.645-10.822-7.204-17.391-7.204c-6.569,0-12.746,2.558-17.391,7.204
			l-17.012,17.012c-2.787,2.787-3.07,7.212-0.66,10.332l28.861,37.367c1.484,1.922,3.774,3.047,6.203,3.047
			c2.428,0,4.719-1.125,6.202-3.047l28.861-37.367C293.473,187.6,293.189,183.176,290.402,180.388z M255.999,210.477l-18.445-23.88
			l12.138-12.138c1.684-1.685,3.925-2.612,6.307-2.612c2.382,0,4.623,0.928,6.307,2.612l12.138,12.138L255.999,210.477z"/>
	</g>
</g>
<g>
	<g>
		<path d="M475.826,272.892c-0.153-2.898-1.893-5.475-4.524-6.698c-2.632-1.224-5.725-0.891-8.036,0.862l-29.442,22.322
			c3.734-42.957-16.406-65.2-24.675-72.415c-0.867-38.362-9.704-75.333-25.689-107.151c-1.943-3.868-6.655-5.429-10.521-3.485
			c-3.867,1.943-5.427,6.653-3.485,10.52c15.379,30.611,23.701,66.418,24.095,103.586l-11.092,69.143l-23.922-27.645
			c-1.609-1.859-4.002-2.859-6.449-2.692c-2.452,0.164-4.685,1.469-6.032,3.525l-40.295,61.506l-43.582-55.794
			c-1.485-1.902-3.764-3.012-6.175-3.012c-2.412,0-4.691,1.111-6.175,3.012l-43.582,55.794l-40.295-61.506
			c-1.347-2.056-3.581-3.361-6.032-3.525c-2.453-0.161-4.84,0.832-6.449,2.692l-23.856,27.568l-11.17-69.147
			c0.562-50.017,15.319-96.836,41.594-131.888c25.879-34.528,59.96-53.544,95.963-53.544c37.486,0,72.556,20.37,98.753,57.36
			c2.502,3.532,7.391,4.369,10.924,1.866c3.532-2.501,4.368-7.393,1.865-10.924c-14.081-19.882-30.706-35.553-49.414-46.576
			c-12.65-7.453-25.849-12.52-39.433-15.185c7.532-3.799,15.829-5.787,24.381-5.787h4.299c4.329,0,7.837-3.509,7.837-7.837
			c0-4.328-3.508-7.837-7.837-7.837h-4.299c-14.41,0-28.271,4.366-40.08,12.625l-6.996,4.892l-6.995-4.892
			C237.194,4.366,223.335,0,208.924,0h-4.299c-4.329,0-7.837,3.509-7.837,7.837c0,4.328,3.508,7.837,7.837,7.837h4.299
			c8.543,0,16.834,1.984,24.36,5.776c-32.414,6.347-62.283,26.252-85.791,57.614c-27.698,36.951-43.49,85.812-44.668,137.922
			c-8.286,7.241-28.378,29.482-24.647,72.392l-29.442-22.322c-2.314-1.753-5.405-2.086-8.036-0.862s-4.373,3.8-4.524,6.699
			c-0.057,1.109-1.339,27.551,5.509,62.822c6.352,32.714,21.234,79.413,56.06,116.106C135.644,491.753,188.889,512,255.999,512
			c61.659,0,111.748-17.154,148.876-50.986c3.199-2.915,3.429-7.871,0.514-11.071c-2.916-3.2-7.872-3.428-11.072-0.514
			c-34.149,31.118-80.686,46.897-138.318,46.897c-62.596,0-111.991-18.577-146.81-55.215
			C61.853,391.305,53.345,320.217,51.98,289.186l53.703,40.714c0,0,0.001,0.001,0.002,0.001l5.852,4.437l16.048-18.546
			l30.941-35.755l40.603,61.976c1.385,2.114,3.704,3.43,6.23,3.536c2.513,0.109,4.945-1.014,6.501-3.006l44.14-56.51l44.141,56.51
			c1.555,1.992,3.972,3.104,6.501,3.006c2.526-0.106,4.845-1.421,6.23-3.536l40.603-61.976l25.741,29.746l21.248,24.555l5.852-4.437
			l0.001-0.001l53.723-40.73c-1.231,28.726-8.567,91.83-47.381,140.614c-2.695,3.387-2.134,8.316,1.253,11.012
			c3.389,2.695,8.317,2.134,11.012-1.254c28.97-36.411,41.263-79.758,46.476-109.71
			C477.028,297.492,475.877,273.881,475.826,272.892z M109.298,312.972l-13.267-10.059c-6.449-30.632,0.141-50.577,7.258-62.25
			c1.406,22.492,5.562,44.247,12.403,64.921L109.298,312.972z M415.969,302.913l-13.267,10.059l-6.392-7.385
			c6.837-20.673,10.993-42.427,12.4-64.915C415.833,252.351,422.415,272.293,415.969,302.913z"/>
	</g>
</g>
<g>
</g>
<g>
</g>
<g>
</g>
<g>
</g>
<g>
</g>
<g>
</g>
<g>
</g>
<g>
</g>
<g>
</g>
<g>
</g>
<g>
</g>
<g>
</g>
<g>
</g>
<g>
</g>
<g>
</g>
</svg>
