<?xml version="1.0" encoding="iso-8859-1"?>
<!-- Generator: Adobe Illustrator 19.0.0, SVG Export Plug-In . SVG Version: 6.00 Build 0)  -->
<svg version="1.1" id="Layer_1" xmlns="http://www.w3.org/2000/svg" xmlns:xlink="http://www.w3.org/1999/xlink" x="0px" y="0px"
	 viewBox="0 0 512 512" style="enable-background:new 0 0 512 512;" xml:space="preserve">
<g>
	<g>
		<path d="M509.291,177.961c-2.23-2.69-5.542-4.248-9.036-4.254l-95.893-0.136c-0.463-8.554-3.457-16.882-8.829-24.046
			c-8.481-11.308-21.445-17.793-35.57-17.793H255.989c-5.883-54.693-52.321-97.418-108.55-97.418
			c-51.426,0-94.656,35.735-106.174,83.674L18.46,102.188c-5.34-3.701-12.667-2.37-16.366,2.97c-3.699,5.34-2.37,12.667,2.97,16.366
			l24.293,16.83l-24.293,16.83c-5.34,3.7-6.669,11.026-2.97,16.366c2.284,3.297,5.95,5.064,9.678,5.064
			c2.31,0,4.645-0.68,6.687-2.095l20.394-14.129c8.427,119.95,105.82,215.742,226.444,221.622v72.152h-53.313
			c-6.496,0-11.761,5.266-11.761,11.761c0,6.496,5.265,11.761,11.761,11.761h65.075c6.495,0,11.761-5.265,11.761-11.761v-83.918
			c109.852-5.364,202.62-85.444,222.98-194.378C512.442,184.194,511.524,180.652,509.291,177.961z M277.059,358.782
			c-118.71,0-215.288-96.578-215.288-215.288c0-47.232,38.431-85.657,85.668-85.657c47.232,0,85.657,38.425,85.657,85.657
			c0,6.496,5.266,11.761,11.761,11.761h115.107c6.65,0,12.756,3.057,16.753,8.385c3.944,5.257,5.171,11.812,3.384,17.943
			c-0.18,0.612-0.395,1.24-0.62,1.823c-12.098,31.008-38.286,55.356-70.053,65.132c-6.208,1.91-9.691,8.492-7.781,14.7
			c1.556,5.056,6.209,8.306,11.238,8.306c1.146,0,2.311-0.169,3.462-0.523c36.783-11.319,67.393-38.732,82.902-73.933l86.357,0.122
			C461.428,291.647,375.895,358.782,277.059,358.782z"/>
	</g>
</g>
<g>
	<g>
		<path d="M280.485,253.325c-1.138,0.034-2.281,0.052-3.426,0.052c-6.495,0-11.761,5.265-11.761,11.761
			c0,6.496,5.267,11.761,11.761,11.761c1.387,0,2.769-0.021,4.145-0.064c6.493-0.198,11.594-5.623,11.395-12.115
			C292.402,258.228,286.935,253.11,280.485,253.325z"/>
	</g>
</g>
<g>
	<g>
		<path d="M144.134,96.508c-6.496,0-11.761,5.265-11.761,11.761v22.922c0,6.496,5.265,11.761,11.761,11.761
			c6.496,0,11.761-5.266,11.761-11.761v-22.922C155.895,101.773,150.63,96.508,144.134,96.508z"/>
	</g>
</g>
<g>
</g>
<g>
</g>
<g>
</g>
<g>
</g>
<g>
</g>
<g>
</g>
<g>
</g>
<g>
</g>
<g>
</g>
<g>
</g>
<g>
</g>
<g>
</g>
<g>
</g>
<g>
</g>
<g>
</g>
</svg>
