<svg width="24" height="24" viewBox="0 0 24 24" fill="none" xmlns="http://www.w3.org/2000/svg">
<path fill-rule="evenodd" clip-rule="evenodd" d="M12 21C16.9706 21 21 16.9706 21 12C21 7.02944 16.9706 3 12 3C7.02944 3 3 7.02944 3 12C3 16.9706 7.02944 21 12 21ZM12 22C17.5228 22 22 17.5228 22 12C22 6.47715 17.5228 2 12 2C6.47715 2 2 6.47715 2 12C2 17.5228 6.47715 22 12 22Z" fill="#212121"/>
<path fill-rule="evenodd" clip-rule="evenodd" d="M12 6.5C12.2761 6.5 12.5 6.72386 12.5 7V11.5858C12.5 11.7184 12.5527 11.8456 12.6464 11.9393L14.8536 14.1464C15.0488 14.3417 15.0488 14.6583 14.8536 14.8536C14.6583 15.0488 14.3417 15.0488 14.1464 14.8536L11.9393 12.6464C11.658 12.3651 11.5 11.9836 11.5 11.5858V7C11.5 6.72386 11.7239 6.5 12 6.5Z" fill="#212121"/>
</svg>
