<svg width="24" height="24" viewBox="0 0 24 24" fill="none" xmlns="http://www.w3.org/2000/svg">
<path d="M12 1.5C12.2761 1.5 12.5 1.72386 12.5 2V3.5H15C16.933 3.5 18.5 5.067 18.5 7V8C18.5 8.27614 18.2761 8.5 18 8.5C17.7239 8.5 17.5 8.27614 17.5 8V7C17.5 5.61929 16.3807 4.5 15 4.5H9C7.61929 4.5 6.5 5.61929 6.5 7V7.11696C6.5 8.62347 7.46401 9.96096 8.8932 10.4374L15.423 12.614C17.2606 13.2265 18.5 14.9461 18.5 16.883V17C18.5 18.933 16.933 20.5 15 20.5H12.5V22C12.5 22.2761 12.2761 22.5 12 22.5C11.7239 22.5 11.5 22.2761 11.5 22V20.5H9C7.067 20.5 5.5 18.933 5.5 17V16C5.5 15.7239 5.72386 15.5 6 15.5C6.27614 15.5 6.5 15.7239 6.5 16V17C6.5 18.3807 7.61929 19.5 9 19.5H15C16.3807 19.5 17.5 18.3807 17.5 17V16.883C17.5 15.3765 16.536 14.039 15.1068 13.5626L8.57698 11.386C6.73944 10.7735 5.5 9.0539 5.5 7.11696V7C5.5 5.067 7.067 3.5 9 3.5H11.5V2C11.5 1.72386 11.7239 1.5 12 1.5Z" fill="#212121"/>
</svg>
