<svg width="24" height="24" viewBox="0 0 24 24" fill="none" xmlns="http://www.w3.org/2000/svg">
<path fill-rule="evenodd" clip-rule="evenodd" d="M17.4233 9.47153C17.4442 9.50508 17.4672 9.53762 17.4923 9.56895C18.4579 10.7735 19.0348 12.3006 19.0348 13.9652C19.0348 17.8504 15.8852 21 12 21C8.11479 21 4.96521 17.8504 4.96521 13.9652C4.96521 12.3006 5.54211 10.7735 6.50769 9.56898L6.51383 9.56133C6.5211 9.55227 6.52821 9.54309 6.53516 9.53379L5.73397 8.93538L5.72747 8.94348C4.62478 10.319 3.96521 12.0651 3.96521 13.9652C3.96521 18.4027 7.5625 22 12 22C16.4375 22 20.0348 18.4027 20.0348 13.9652C20.0348 12.4249 19.6013 10.9858 18.8498 9.76329C18.6755 9.47984 18.4842 9.20802 18.2772 8.94928L18.2743 8.94565L18.2725 8.94348H18.2772L18.2754 8.94115C18.2754 8.94115 18.2737 8.93886 18.2725 8.93726C18.2384 8.89165 18.0185 8.59778 17.6741 8.14228C16.7342 6.89896 14.8672 4.45137 13.3215 2.56071C12.6313 1.71655 11.3689 1.71688 10.6792 2.56137C8.52282 5.20153 5.73397 8.93538 5.73397 8.93538C6.53516 9.53379 6.53516 9.53379 6.53516 9.53379L6.65791 9.36992C6.73792 9.26328 6.85477 9.1078 7.00178 8.91289C7.29585 8.52302 7.71042 7.97566 8.19213 7.3461C9.15693 6.08518 10.3856 4.50162 11.4537 3.19394C11.7434 2.83918 12.2574 2.83907 12.5473 3.19366C13.6187 4.50419 14.85 6.08989 15.8165 7.35226C16.2991 7.98254 16.7143 8.53044 17.0089 8.92066C17.1561 9.11575 17.2731 9.27136 17.3532 9.37809L17.4233 9.47153Z" fill="#212121"/>
</svg>
