<svg width="24" height="24" viewBox="0 0 24 24" fill="none" xmlns="http://www.w3.org/2000/svg">
<path fill-rule="evenodd" clip-rule="evenodd" d="M14.5356 3.8076C15.7071 2.63603 17.6066 2.63603 18.7782 3.8076L20.1924 5.22182C21.364 6.39339 21.364 8.29289 20.1924 9.46446L9.7999 19.857C9.6603 19.9966 9.4825 20.0917 9.28891 20.1304L3.98561 21.1911C3.28589 21.331 2.66897 20.7141 2.80892 20.0144L3.86958 14.7111C3.90829 14.5175 4.00345 14.3397 4.14305 14.2001L14.5356 3.8076ZM18.0711 4.51471L19.4853 5.92892C20.2664 6.70997 20.2664 7.9763 19.4853 8.75735L17.7175 10.5251L13.4749 6.28249L15.2427 4.51471C16.0237 3.73366 17.29 3.73366 18.0711 4.51471ZM12.7678 6.9896L4.85016 14.9072L3.7895 20.2105L9.0928 19.1499L17.0104 11.2322L12.7678 6.9896Z" fill="#212121"/>
</svg>
