<svg width="24" height="24" viewBox="0 0 24 24" fill="none" xmlns="http://www.w3.org/2000/svg">
<path d="M17.2501 14.5088C19.0664 14.637 20.5 16.1511 20.5 18V20C20.5 20.2761 20.7239 20.5 21 20.5C21.2761 20.5 21.5 20.2761 21.5 20V18C21.5 15.5147 19.4853 13.5 17 13.5H16.1631C16.5693 13.7861 16.9351 14.1258 17.2501 14.5088Z" fill="#212121"/>
<path fill-rule="evenodd" clip-rule="evenodd" d="M7 14.5C5.067 14.5 3.5 16.067 3.5 18V20C3.5 20.2761 3.27614 20.5 3 20.5C2.72386 20.5 2.5 20.2761 2.5 20V18C2.5 15.5147 4.51472 13.5 7 13.5H13C15.4853 13.5 17.5 15.5147 17.5 18V20C17.5 20.2761 17.2761 20.5 17 20.5C16.7239 20.5 16.5 20.2761 16.5 20V18C16.5 16.067 14.933 14.5 13 14.5H7Z" fill="#212121"/>
<path d="M14.0003 10C15.657 9.9998 16.9999 8.65673 16.9999 7C16.9999 5.34327 15.657 4.0002 14.0003 4C13.7473 3.66319 13.4527 3.35936 13.1243 3.09613C13.4061 3.0332 13.6991 3 13.9999 3C16.209 3 17.9999 4.79086 17.9999 7C17.9999 9.20914 16.209 11 13.9999 11C13.6991 11 13.4061 10.9668 13.1243 10.9039C13.4527 10.6406 13.7473 10.3368 14.0003 10Z" fill="#212121"/>
<path fill-rule="evenodd" clip-rule="evenodd" d="M10 10C11.6569 10 13 8.65685 13 7C13 5.34315 11.6569 4 10 4C8.34315 4 7 5.34315 7 7C7 8.65685 8.34315 10 10 10ZM10 11C12.2091 11 14 9.20914 14 7C14 4.79086 12.2091 3 10 3C7.79086 3 6 4.79086 6 7C6 9.20914 7.79086 11 10 11Z" fill="#212121"/>
</svg>
