<svg width="24" height="24" viewBox="0 0 24 24" fill="none" xmlns="http://www.w3.org/2000/svg">
<path fill-rule="evenodd" clip-rule="evenodd" d="M10.7296 6.2642C9.0757 4.5786 6.39821 4.5786 4.74432 6.2642C3.08523 7.95509 3.08523 10.7004 4.74432 12.3913L10.9293 18.6949C11.5173 19.2942 12.4827 19.2942 13.0707 18.6949L19.2557 12.3913C20.9148 10.7004 20.9148 7.95509 19.2557 6.2642C17.6018 4.5786 14.9243 4.5786 13.2704 6.2642L12.3569 7.19522C12.2629 7.29105 12.1343 7.34504 12 7.34504C11.8657 7.34504 11.7371 7.29105 11.6431 7.19522L10.7296 6.2642ZM11.4434 5.56384L11.0865 5.91402L11.4434 5.56384L12 6.13112L12.5566 5.56384C14.6025 3.47872 17.9236 3.47872 19.9695 5.56384C22.0102 7.64366 22.0102 11.0119 19.9695 13.0917L13.7845 19.3952C12.8045 20.394 11.1955 20.394 10.2155 19.3952L4.03053 13.0917C1.98982 11.0119 1.98982 7.64366 4.03053 5.56384C6.07643 3.47872 9.39749 3.47872 11.4434 5.56384Z" fill="#212121"/>
</svg>
