<svg width="24" height="24" viewBox="0 0 24 24" fill="none" xmlns="http://www.w3.org/2000/svg">
<path fill-rule="evenodd" clip-rule="evenodd" d="M12 21C16.9706 21 21 16.9706 21 12C21 7.02944 16.9706 3 12 3C7.02944 3 3 7.02944 3 12C3 16.9706 7.02944 21 12 21ZM12 22C17.5228 22 22 17.5228 22 12C22 6.47715 17.5228 2 12 2C6.47715 2 2 6.47715 2 12C2 17.5228 6.47715 22 12 22Z" fill="#212121"/>
<path d="M12.5 17.5C12.5 17.7761 12.2761 18 12 18C11.7239 18 11.5 17.7761 11.5 17.5C11.5 17.2239 11.7239 17 12 17C12.2761 17 12.5 17.2239 12.5 17.5Z" fill="#212121"/>
<path fill-rule="evenodd" clip-rule="evenodd" d="M12 7.5C10.9122 7.5 9.98552 8.19496 9.64209 9.16662C9.55007 9.42698 9.2644 9.56344 9.00405 9.47142C8.74369 9.3794 8.60723 9.09373 8.69925 8.83338C9.17949 7.47466 10.4753 6.5 12 6.5C13.933 6.5 15.5 8.067 15.5 10C15.5 11.7632 14.1961 13.2219 12.5 13.4646V15C12.5 15.2761 12.2761 15.5 12 15.5C11.7238 15.5 11.5 15.2761 11.5 15V13C11.5 12.7239 11.7238 12.5 12 12.5C13.3807 12.5 14.5 11.3807 14.5 10C14.5 8.61929 13.3807 7.5 12 7.5Z" fill="#212121"/>
</svg>
