<svg width="24" height="24" viewBox="0 0 24 24" fill="none" xmlns="http://www.w3.org/2000/svg">
<path fill-rule="evenodd" clip-rule="evenodd" d="M10.8027 14C11.1597 14 11.4896 14.1903 11.6683 14.4993C12.5344 15.9964 14.1506 17 16 17C18.7614 17 21 14.7614 21 12C21 9.23858 18.7614 7 16 7C14.1506 7 12.5344 8.00361 11.6683 9.50073C11.4896 9.80972 11.1597 10 10.8027 10H5.413L3.41406 11.9998L5.41427 14H10.8027ZM10.8027 15C11.8401 16.7934 13.7792 18 16 18C19.3137 18 22 15.3137 22 12C22 8.68629 19.3137 6 16 6C13.7792 6 11.8401 7.2066 10.8027 9H5.413C5.14771 9 4.89329 9.10542 4.70574 9.29305L2.7068 11.2929C2.31642 11.6834 2.31649 12.3165 2.70696 12.7069L4.70717 14.7071C4.8947 14.8946 5.14906 15 5.41427 15H10.8027Z" fill="#212121"/>
<path fill-rule="evenodd" clip-rule="evenodd" d="M16 13C16.5523 13 17 12.5523 17 12C17 11.4477 16.5523 11 16 11C15.4477 11 15 11.4477 15 12C15 12.5523 15.4477 13 16 13ZM18 12C18 13.1046 17.1046 14 16 14C14.8954 14 14 13.1046 14 12C14 10.8954 14.8954 10 16 10C17.1046 10 18 10.8954 18 12Z" fill="#212121"/>
</svg>
