<svg width="24" height="24" viewBox="0 0 24 24" fill="none" xmlns="http://www.w3.org/2000/svg">
<path fill-rule="evenodd" clip-rule="evenodd" d="M3 2.5C3.27614 2.5 3.5 2.72386 3.5 3V19C3.5 19.8284 4.17157 20.5 5 20.5H21C21.2761 20.5 21.5 20.7239 21.5 21C21.5 21.2761 21.2761 21.5 21 21.5H5C3.61929 21.5 2.5 20.3807 2.5 19V3C2.5 2.72386 2.72386 2.5 3 2.5Z" fill="#212121"/>
<path fill-rule="evenodd" clip-rule="evenodd" d="M21.3536 8.64645C21.5488 8.84171 21.5488 9.15829 21.3536 9.35355L16.7678 13.9393C15.7915 14.9157 14.2085 14.9157 13.2322 13.9393L11.0607 11.7678C10.4749 11.182 9.52513 11.182 8.93934 11.7678L6.85355 13.8536C6.65829 14.0488 6.34171 14.0488 6.14645 13.8536C5.95118 13.6583 5.95118 13.3417 6.14645 13.1464L8.23223 11.0607C9.20854 10.0843 10.7915 10.0843 11.7678 11.0607L13.9393 13.2322C14.5251 13.818 15.4749 13.818 16.0607 13.2322L20.6464 8.64645C20.8417 8.45118 21.1583 8.45118 21.3536 8.64645Z" fill="#212121"/>
</svg>
