<svg width="24" height="24" viewBox="0 0 24 24" fill="none" xmlns="http://www.w3.org/2000/svg">
<path fill-rule="evenodd" clip-rule="evenodd" d="M2 7C2 5.34315 3.34315 4 5 4H19C20.6569 4 22 5.34315 22 7V17C22 18.6569 20.6569 20 19 20H5C3.34315 20 2 18.6569 2 17V7ZM5 5H19C19.865 5 20.6018 5.54918 20.8807 6.31791L12.847 11.8146C12.3364 12.164 11.6636 12.164 11.153 11.8146L3.11933 6.31791C3.39819 5.54918 4.13496 5 5 5ZM3 7.44794V17C3 18.1046 3.89543 19 5 19H19C20.1046 19 21 18.1046 21 17V7.44793L13.4117 12.6399C12.5606 13.2222 11.4394 13.2222 10.5883 12.6399L3 7.44794Z" fill="#212121"/>
</svg>
