<svg width="24" height="24" viewBox="0 0 24 24" fill="none" xmlns="http://www.w3.org/2000/svg">
<path fill-rule="evenodd" clip-rule="evenodd" d="M6 5C6 3.34315 7.34315 2 9 2H19C20.6569 2 22 3.34315 22 5V15C22 16.6569 20.6569 18 19 18H18V19C18 20.6569 16.6569 22 15 22H5C3.34315 22 2 20.6569 2 19V9C2 7.34315 3.34315 6 5 6H6V5ZM9 3H19C20.1046 3 21 3.89543 21 5V15C21 16.1046 20.1046 17 19 17H9C7.89543 17 7 16.1046 7 15V5C7 3.89543 7.89543 3 9 3ZM6 7H5C3.89543 7 3 7.89543 3 9V19C3 20.1046 3.89543 21 5 21H15C16.1046 21 17 20.1046 17 19V18H9C7.34315 18 6 16.6569 6 15V7Z" fill="#212121"/>
<path fill-rule="evenodd" clip-rule="evenodd" d="M17.3536 7.64645C17.5488 7.84171 17.5488 8.15829 17.3536 8.35355L13.3536 12.3536C13.1583 12.5488 12.8417 12.5488 12.6464 12.3536L10.6464 10.3536C10.4512 10.1583 10.4512 9.84171 10.6464 9.64645C10.8417 9.45118 11.1583 9.45118 11.3536 9.64645L13 11.2929L16.6464 7.64645C16.8417 7.45118 17.1583 7.45118 17.3536 7.64645Z" fill="#212121"/>
</svg>
