<svg width="24" height="24" viewBox="0 0 24 24" fill="none" xmlns="http://www.w3.org/2000/svg">
<path fill-rule="evenodd" clip-rule="evenodd" d="M6 3.5C5.17157 3.5 4.5 4.17157 4.5 5V19C4.5 19.8284 5.17157 20.5 6 20.5H18C18.8284 20.5 19.5 19.8284 19.5 19V12C19.5 11.7239 19.7239 11.5 20 11.5C20.2761 11.5 20.5 11.7239 20.5 12V19C20.5 20.3807 19.3807 21.5 18 21.5H6C4.61929 21.5 3.5 20.3807 3.5 19V5C3.5 3.61929 4.61929 2.5 6 2.5H12C12.2761 2.5 12.5 2.72386 12.5 3C12.5 3.27614 12.2761 3.5 12 3.5H6Z" fill="#212121"/>
<path fill-rule="evenodd" clip-rule="evenodd" d="M15.6066 4.12132C16.7782 2.94975 18.6777 2.94975 19.8492 4.12132C21.0208 5.2929 21.0208 7.19239 19.8492 8.36397L12.3068 15.9064C12.1538 16.0594 11.9553 16.1587 11.7411 16.1893L8.44125 16.6607C7.78128 16.755 7.2156 16.1893 7.30988 15.5293L7.78128 12.2295C7.81188 12.0153 7.91113 11.8168 8.06412 11.6638L15.6066 4.12132ZM17.3744 9.42464L11.5997 15.1993L8.29983 15.6707L8.77123 12.3709L14.5459 6.59621L17.3744 9.42464ZM18.0815 8.71753L19.1421 7.65686C19.9232 6.87581 19.9232 5.60948 19.1421 4.82843C18.3611 4.04738 17.0948 4.04738 16.3137 4.82843L15.253 5.8891L18.0815 8.71753Z" fill="#212121"/>
</svg>
