<svg width="24" height="24" viewBox="0 0 24 24" fill="none" xmlns="http://www.w3.org/2000/svg">
<path d="M12.0293 3C10.119 3 8.38854 3.76834 7.12964 5.0125L6.42252 4.30538C7.86237 2.88028 9.84279 2 12.0293 2C16.4314 2 20 5.56859 20 9.97067L20 13.1716C20 13.702 20.2107 14.2107 20.5858 14.5858L21.5858 15.5858C21.851 15.851 22 16.2107 22 16.5858C22 17.3668 21.3668 18 20.5858 18H20.1171L19.1171 17H20.5858C20.8145 17 21 16.8146 21 16.5858C21 16.4759 20.9564 16.3706 20.8787 16.2929L19.8787 15.2929C19.3161 14.7303 19 13.9672 19 13.1716L19 9.97067C19 6.12087 15.8791 3 12.0293 3Z" fill="#212121"/>
<path fill-rule="evenodd" clip-rule="evenodd" d="M3.40408 17H17.7029L18.7029 18H16C16 20.2091 14.2091 22 12 22C9.79086 22 8 20.2091 8 18H3.40408C2.62863 18 2 17.3714 2 16.5959C2 16.2151 2.15471 15.8506 2.42864 15.586L3.45759 14.5922C3.84928 14.2139 4.06977 13.6922 4.06814 13.1476L4.05867 9.9946C4.05308 8.13016 4.68798 6.41366 5.75601 5.05308L6.46901 5.76608C5.57975 6.94023 5.05391 8.40463 5.05867 9.9916L5.06813 13.1446C5.07059 13.9615 4.73985 14.744 4.15231 15.3115L3.12336 16.3053C3.04452 16.3814 3 16.4863 3 16.5959C3 16.8191 3.18091 17 3.40408 17ZM9 18C9 19.6569 10.3431 21 12 21C13.6569 21 15 19.6569 15 18H9Z" fill="#212121"/>
<path fill-rule="evenodd" clip-rule="evenodd" d="M2.64645 2.64645C2.84171 2.45118 3.15829 2.45118 3.35355 2.64645L21.3536 20.6464C21.5488 20.8417 21.5488 21.1583 21.3536 21.3536C21.1583 21.5488 20.8417 21.5488 20.6464 21.3536L2.64645 3.35355C2.45118 3.15829 2.45118 2.84171 2.64645 2.64645Z" fill="#212121"/>
</svg>
