<svg width="24" height="24" viewBox="0 0 24 24" fill="none" xmlns="http://www.w3.org/2000/svg">
<path fill-rule="evenodd" clip-rule="evenodd" d="M8 18H3.40408C2.62863 18 2 17.3714 2 16.5959C2 16.2151 2.15471 15.8506 2.42864 15.586L3.45759 14.5922C3.84928 14.2139 4.06977 13.6922 4.06814 13.1476L4.05867 9.9946C4.04543 5.58319 7.61789 2 12.0293 2C16.4314 2 20 5.56859 20 9.97067L20 13.1716C20 13.702 20.2107 14.2107 20.5858 14.5858L21.5858 15.5858C21.851 15.851 22 16.2107 22 16.5858C22 17.3668 21.3668 18 20.5858 18H16C16 20.2091 14.2091 22 12 22C9.79086 22 8 20.2091 8 18ZM20.5858 17H3.40408C3.18091 17 3 16.8191 3 16.5959C3 16.4863 3.04452 16.3814 3.12336 16.3053L4.15231 15.3115C4.73985 14.744 5.07059 13.9615 5.06813 13.1446L5.05867 9.9916C5.04709 6.13364 8.17134 3 12.0293 3C15.8791 3 19 6.12087 19 9.97067L19 13.1716C19 13.9672 19.3161 14.7303 19.8787 15.2929L20.8787 16.2929C20.9564 16.3706 21 16.4759 21 16.5858C21 16.8146 20.8145 17 20.5858 17ZM9 18C9 19.6569 10.3431 21 12 21C13.6569 21 15 19.6569 15 18H9Z" fill="#212121"/>
</svg>
