<svg width="24" height="24" viewBox="0 0 24 24" fill="none" xmlns="http://www.w3.org/2000/svg">
<path d="M15.8568 4.43057C15.9834 4.18225 16.2881 4.0823 16.5289 4.22254C18.1232 5.15086 19.3975 6.54931 20.1733 8.23207C21.0196 10.0679 21.2233 12.1353 20.7513 14.101C20.2794 16.0667 19.1594 17.8163 17.5719 19.0679C15.9843 20.3194 14.0216 21 12 21C9.97845 21 8.01575 20.3194 6.42817 19.0679C4.8406 17.8163 3.72061 16.0667 3.24868 14.101C2.77675 12.1353 2.98036 10.068 3.82671 8.23209C4.60247 6.54933 5.87681 5.15088 7.47108 4.22255C7.71191 4.08231 8.01664 4.18226 8.14316 4.43058C8.26969 4.67889 8.17 4.98138 7.93016 5.12332C6.53745 5.94754 5.42407 7.17775 4.74323 8.65461C3.99179 10.2846 3.81101 12.1202 4.23002 13.8654C4.64903 15.6107 5.64343 17.1641 7.05298 18.2753C8.46253 19.3865 10.2051 19.9908 12 19.9908C13.7949 19.9908 15.5375 19.3865 16.9471 18.2753C18.3566 17.1641 19.351 15.6107 19.77 13.8654C20.189 12.1201 20.0082 10.2846 19.2568 8.6546C18.5759 7.17773 17.4625 5.94752 16.0698 5.12331C15.83 4.98137 15.7303 4.67888 15.8568 4.43057Z" fill="#212121"/>
<path fill-rule="evenodd" clip-rule="evenodd" d="M12 2.5C12.2761 2.5 12.5 2.72386 12.5 3V8C12.5 8.27614 12.2761 8.5 12 8.5C11.7239 8.5 11.5 8.27614 11.5 8V3C11.5 2.72386 11.7239 2.5 12 2.5Z" fill="#212121"/>
</svg>
