<svg width="24" height="24" viewBox="0 0 24 24" fill="none" xmlns="http://www.w3.org/2000/svg">
<path fill-rule="evenodd" clip-rule="evenodd" d="M18.5588 19.5488C20.6672 17.7154 22 15.0134 22 12C22 6.47715 17.5228 2 12 2C6.47715 2 2 6.47715 2 12C2 15.0134 3.33284 17.7154 5.44116 19.5488C7.19693 21.0756 9.49052 22 12 22C14.4162 22 16.6323 21.143 18.3609 19.7165C18.4276 19.6614 18.4936 19.6055 18.5588 19.5488ZM12.0059 21L12 21C10.0034 21 8.15856 20.3498 6.66581 19.2496C7.66366 17.3184 9.67889 16 12 16C14.3211 16 16.3363 17.3184 17.3342 19.2496C15.8429 20.3487 14.0003 20.9987 12.0059 21ZM18.1198 18.5992C16.9242 16.4523 14.6317 15 12 15C9.36829 15 7.07579 16.4523 5.8802 18.5991C4.10863 16.9555 3 14.6072 3 12C3 7.02944 7.02944 3 12 3C16.9706 3 21 7.02944 21 12C21 14.6072 19.8914 16.9555 18.1198 18.5992Z" fill="#212121"/>
<path fill-rule="evenodd" clip-rule="evenodd" d="M12 13C13.6569 13 15 11.6569 15 10C15 8.34315 13.6569 7 12 7C10.3431 7 9 8.34315 9 10C9 11.6569 10.3431 13 12 13ZM12 14C14.2091 14 16 12.2091 16 10C16 7.79086 14.2091 6 12 6C9.79086 6 8 7.79086 8 10C8 12.2091 9.79086 14 12 14Z" fill="#212121"/>
</svg>
