<svg width="24" height="24" viewBox="0 0 24 24" fill="none" xmlns="http://www.w3.org/2000/svg">
<path fill-rule="evenodd" clip-rule="evenodd" d="M17.0006 17.7077C15.4083 19.1332 13.3054 20 11 20C6.02944 20 2 15.9706 2 11C2 6.02944 6.02944 2 11 2C15.9706 2 20 6.02944 20 11C20 13.3054 19.1332 15.4083 17.7077 17.0006L20.3536 19.6464C20.5488 19.8417 20.5488 20.1583 20.3536 20.3536C20.1583 20.5488 19.8417 20.5488 19.6464 20.3536L17.0006 17.7077ZM16.5732 16.7393C15.1326 18.1385 13.1669 19 11 19C6.58172 19 3 15.4183 3 11C3 6.58172 6.58172 3 11 3C15.4183 3 19 6.58172 19 11C19 13.1669 18.1385 15.1326 16.7393 16.5732C16.7062 16.5934 16.675 16.6179 16.6464 16.6464C16.6179 16.675 16.5934 16.7062 16.5732 16.7393Z" fill="#212121"/>
</svg>
