<svg width="24" height="24" viewBox="0 0 24 24" fill="none" xmlns="http://www.w3.org/2000/svg">
<path fill-rule="evenodd" clip-rule="evenodd" d="M10.4304 2.68377L10.0428 3.84643C9.76421 4.68225 9.14749 5.28849 8.47888 5.66078C8.41007 5.69909 8.34195 5.73849 8.27453 5.77897C7.61719 6.17358 6.7827 6.40525 5.91853 6.22841L4.71675 5.98248C4.29506 5.89619 3.86546 6.08942 3.65024 6.46218L3.02926 7.53775C2.81405 7.91052 2.86151 8.37917 3.14708 8.70122L3.96211 9.62034C4.54545 10.2782 4.76377 11.1141 4.75163 11.8803C4.75037 11.96 4.75037 12.0399 4.75163 12.1197C4.76377 12.8858 4.54544 13.7218 3.96211 14.3796L3.14709 15.2987C2.86151 15.6208 2.81405 16.0894 3.02926 16.4622L3.65024 17.5378C3.86546 17.9105 4.29506 18.1037 4.71675 18.0175L5.91844 17.7715C6.78263 17.5947 7.61713 17.8264 8.27448 18.221C8.34191 18.2615 8.41006 18.3009 8.47888 18.3392C9.14749 18.7115 9.76421 19.3178 10.0428 20.1536L10.4304 21.3162C10.5665 21.7246 10.9486 22 11.3791 22H12.621C13.0514 22 13.4336 21.7246 13.5697 21.3162L13.9573 20.1536C14.2359 19.3178 14.8526 18.7115 15.5212 18.3392C15.59 18.3009 15.6581 18.2615 15.7256 18.221C16.3829 17.8264 17.2174 17.5947 18.0816 17.7715L19.2833 18.0174C19.705 18.1037 20.1346 17.9105 20.3498 17.5378L20.9708 16.4622C21.186 16.0894 21.1385 15.6208 20.8529 15.2987L20.038 14.3797C19.4546 13.7218 19.2363 12.8859 19.2484 12.1197C19.2497 12.0399 19.2497 11.96 19.2484 11.8802C19.2363 11.1141 19.4546 10.2781 20.038 9.62028L20.8529 8.70122C21.1385 8.37917 21.186 7.91052 20.9708 7.53775L20.3498 6.46218C20.1346 6.08942 19.705 5.89619 19.2833 5.98248L18.0815 6.2284C17.2174 6.40524 16.3829 6.17358 15.7255 5.77896C15.6581 5.73849 15.59 5.69909 15.5212 5.66078C14.8526 5.28849 14.2359 4.68225 13.9573 3.84643L13.5697 2.68377C13.4336 2.27543 13.0514 2 12.621 2H11.3791C10.9486 2 10.5665 2.27543 10.4304 2.68377ZM9.09413 3.53021C8.91189 4.07694 8.49591 4.50673 7.9924 4.78709C7.91408 4.83069 7.83655 4.87554 7.75983 4.9216C7.26514 5.21857 6.68428 5.36439 6.11901 5.24871L4.91723 5.00278C4.07385 4.8302 3.21465 5.21665 2.78422 5.96218L2.16324 7.03775C1.73281 7.78328 1.82773 8.72059 2.39888 9.36469L3.21391 10.2838C3.59582 10.7145 3.76088 11.2889 3.75176 11.8644C3.75033 11.9548 3.75033 12.0452 3.75176 12.1355C3.76087 12.7111 3.59582 13.2854 3.21391 13.7161L2.39888 14.6352C1.82773 15.2793 1.73281 16.2167 2.16324 16.9622L2.78422 18.0378C3.21465 18.7833 4.07385 19.1697 4.91723 18.9971L6.11892 18.7512C6.68421 18.6356 7.26507 18.7814 7.75977 19.0784C7.83651 19.1244 7.91406 19.1693 7.9924 19.2129C8.49591 19.4933 8.91189 19.9231 9.09413 20.4698L9.48169 21.6325C9.75391 22.4491 10.5182 23 11.3791 23H12.621C13.4819 23 14.2462 22.4491 14.5184 21.6325L14.9059 20.4698C15.0882 19.9231 15.5042 19.4933 16.0077 19.2129C16.086 19.1693 16.1635 19.1244 16.2403 19.0784C16.735 18.7814 17.3158 18.6356 17.8811 18.7512L19.0828 18.9971C19.9262 19.1697 20.7854 18.7833 21.2158 18.0378L21.8368 16.9622C22.2672 16.2167 22.1723 15.2793 21.6011 14.6352L20.7862 13.7162C20.4042 13.2855 20.2392 12.7111 20.2483 12.1356C20.2497 12.0452 20.2497 11.9548 20.2483 11.8644C20.2392 11.2888 20.4042 10.7144 20.7862 10.2838L21.6011 9.36469C22.1723 8.72059 22.2672 7.78328 21.8368 7.03775L21.2158 5.96218C20.7854 5.21666 19.9262 4.8302 19.0828 5.00279L17.881 5.2487C17.3158 5.36438 16.7349 5.21857 16.2402 4.92159C16.1635 4.87554 16.086 4.83069 16.0077 4.78709C15.5042 4.50673 15.0882 4.07694 14.9059 3.53021L14.5184 2.36754C14.2462 1.55086 13.4819 1 12.621 1H11.3791C10.5182 1 9.75391 1.55086 9.48168 2.36754L9.09413 3.53021Z" fill="#212121"/>
<path fill-rule="evenodd" clip-rule="evenodd" d="M12 15C13.6569 15 15 13.6569 15 12C15 10.3431 13.6569 9 12 9C10.3431 9 9 10.3431 9 12C9 13.6569 10.3431 15 12 15ZM16 12C16 14.2091 14.2091 16 12 16C9.79086 16 8 14.2091 8 12C8 9.79086 9.79086 8 12 8C14.2091 8 16 9.79086 16 12Z" fill="#212121"/>
</svg>
