<svg width="24" height="24" viewBox="0 0 24 24" fill="none" xmlns="http://www.w3.org/2000/svg">
<path fill-rule="evenodd" clip-rule="evenodd" d="M11.3675 2.76491L5.36754 4.76491C4.55086 5.03714 4 5.80142 4 6.66228V12C4 14.3884 5.20234 16.3584 6.78094 17.9205C8.36113 19.4841 10.2402 20.5572 11.3834 21.1229C11.7765 21.3174 12.2235 21.3174 12.6166 21.1229C13.7598 20.5572 15.6389 19.4841 17.2191 17.9205C18.7977 16.3584 20 14.3884 20 12V6.66228C20 5.80142 19.4491 5.03714 18.6325 4.76491L12.6325 2.76491C12.2219 2.62807 11.7781 2.62807 11.3675 2.76491ZM5.05132 3.81623C3.82629 4.22457 3 5.37099 3 6.66228V12C3 17.502 8.56019 20.8417 10.9399 22.0192C11.6125 22.3519 12.3875 22.3519 13.0601 22.0192C15.4398 20.8417 21 17.502 21 12V6.66228C21 5.37099 20.1737 4.22457 18.9487 3.81623L12.9487 1.81623C12.3329 1.61096 11.6671 1.61096 11.0513 1.81623L5.05132 3.81623Z" fill="#212121"/>
</svg>
