<svg width="24" height="24" viewBox="0 0 24 24" fill="none" xmlns="http://www.w3.org/2000/svg">
<path fill-rule="evenodd" clip-rule="evenodd" d="M12 2.5C10.067 2.5 8.5 4.067 8.5 6H6.64839C5.13542 6 3.85922 7.12661 3.67156 8.6279L2.42156 18.6279C2.19774 20.4185 3.5939 22 5.39839 22H18.6017C20.4062 22 21.8024 20.4185 21.5785 18.6279L20.3285 8.6279C20.1409 7.12661 18.8647 6 17.3517 6H15.5C15.5 4.067 13.933 2.5 12 2.5ZM14.5 7V9C14.5 9.27614 14.7239 9.5 15 9.5C15.2761 9.5 15.5 9.27614 15.5 9V7H17.3517C18.3603 7 19.2111 7.75107 19.3363 8.75193L20.5863 18.7519C20.7355 19.9456 19.8047 21 18.6017 21H5.39839C4.19539 21 3.26462 19.9456 3.41384 18.7519L4.66384 8.75193C4.78894 7.75107 5.63974 7 6.64839 7H8.5V9C8.5 9.27614 8.72386 9.5 9 9.5C9.27614 9.5 9.5 9.27614 9.5 9V7H14.5ZM14.5 6C14.5 4.61929 13.3807 3.5 12 3.5C10.6193 3.5 9.5 4.61929 9.5 6H14.5Z" fill="#212121"/>
</svg>
