<svg width="24" height="24" viewBox="0 0 24 24" fill="none" xmlns="http://www.w3.org/2000/svg">
<path fill-rule="evenodd" clip-rule="evenodd" d="M11.9999 18C16.6635 18 19.3982 14.5239 20.5405 12.619C20.773 12.2315 20.773 11.7685 20.5406 11.381C19.3982 9.4761 16.6635 6 11.9999 6C7.33641 6 4.60169 9.4761 3.45934 11.381C3.22693 11.7685 3.22693 12.2315 3.45934 12.619C4.60169 14.5239 7.33641 18 11.9999 18ZM21.3982 13.1334C20.2099 15.1148 17.215 19 11.9999 19C6.78492 19 3.79002 15.1148 2.60173 13.1334C2.17947 12.4292 2.17947 11.5708 2.60173 10.8666C3.79002 8.88521 6.78492 5 11.9999 5C17.215 5 20.2099 8.88521 21.3982 10.8666C21.8204 11.5708 21.8204 12.4292 21.3982 13.1334Z" fill="#212121"/>
<path fill-rule="evenodd" clip-rule="evenodd" d="M12 14C13.1046 14 14 13.1046 14 12C14 10.8954 13.1046 10 12 10C10.8954 10 10 10.8954 10 12C10 13.1046 10.8954 14 12 14ZM12 15C13.6569 15 15 13.6569 15 12C15 10.3431 13.6569 9 12 9C10.3431 9 9 10.3431 9 12C9 13.6569 10.3431 15 12 15Z" fill="#212121"/>
</svg>
