<svg width="24" height="24" viewBox="0 0 24 24" fill="none" xmlns="http://www.w3.org/2000/svg">
<path fill-rule="evenodd" clip-rule="evenodd" d="M21 11.4121C21.9889 10.8522 22.4662 9.62723 22.0318 8.51023L20.2438 3.91266C19.7954 2.75955 18.685 2 17.4478 2H6.55221C5.31497 2 4.20463 2.75954 3.75619 3.91266L1.96825 8.51023C1.53386 9.62723 2.01111 10.8522 3 11.4121V19C3 20.6568 4.34315 22 6 22H18C19.6569 22 21 20.6568 21 19V11.4121ZM17.7016 11.3508L17.0002 11.0001L16.357 11.2572C15.1649 11.734 13.8351 11.734 12.6431 11.2572L12 11L11.357 11.2572C10.1649 11.734 8.83511 11.734 7.64305 11.2572L6.99977 11.0001L6.29844 11.3508C5.58518 11.7074 4.78336 11.8368 4 11.7273V19C4 20.1045 4.89543 21 6 21H8V16.5C8 15.1193 9.11929 14 10.5 14H13.5C14.8807 14 16 15.1193 16 16.5V21H18C19.1046 21 20 20.1045 20 19V11.7273C19.2166 11.8368 18.4148 11.7074 17.7016 11.3508ZM12.5 3H15.085L16.4261 10.1525L15.9856 10.3287C15.0319 10.7102 13.9681 10.7102 13.0144 10.3287L12.5 10.123V3ZM17.4478 3H16.1024L17.4335 10.0988L17.4472 10.1056L18.1488 10.4564C18.7732 10.7685 19.4886 10.8471 20.1658 10.6778C20.9571 10.48 21.3954 9.63284 21.0998 8.87268L19.3118 4.27511C19.0129 3.50636 18.2726 3 17.4478 3ZM11.5 3H8.91494L7.57384 10.1525L8.01444 10.3287C8.96809 10.7102 10.0319 10.7102 10.9856 10.3287L11.5 10.123V3ZM6.56647 10.0989L7.89751 3H6.55221C5.72738 3 4.98715 3.50636 4.6882 4.27511L2.90025 8.87267C2.60463 9.63284 3.04292 10.48 3.83419 10.6778C4.51141 10.8471 5.22686 10.7685 5.85122 10.4564L6.55279 10.1056L6.56647 10.0989ZM15 16.5V21H9V16.5C9 15.6716 9.67157 15 10.5 15H13.5C14.3284 15 15 15.6716 15 16.5Z" fill="#212121"/>
</svg>
