<svg width="24" height="24" viewBox="0 0 24 24" fill="none" xmlns="http://www.w3.org/2000/svg">
<path fill-rule="evenodd" clip-rule="evenodd" d="M7.6 11L9.57248 7.71254C9.85223 7.24629 10 6.71278 10 6.16905V4.49027C10 3.26516 11.2002 2.40008 12.3625 2.78749C14.4572 3.48573 15.7326 5.60413 15.3696 7.78212L15 10L20.4394 10.0023C21.7402 10.0029 22.6944 11.2255 22.3788 12.4875L20.5682 19.7278C20.2343 21.0632 19.0344 22 17.6578 22H5C3.34315 22 2 20.6569 2 19V14C2 12.3431 3.34315 11 5 11H7.6ZM14.0136 9.8356C13.9653 10.1255 14.0469 10.4219 14.2368 10.6462C14.4267 10.8705 14.7057 10.9999 14.9996 11L20.439 11.0023C21.0894 11.0026 21.5665 11.6139 21.4087 12.2449L19.5981 19.4852C19.3755 20.3755 18.5755 21 17.6578 21H8V12.277L10.43 8.22703C10.803 7.60537 11 6.89402 11 6.16905V4.49027C11 3.94771 11.5315 3.5646 12.0462 3.73617C13.6742 4.27881 14.6654 5.92511 14.3833 7.61772L14.0136 9.8356ZM7 12L5 12C3.89543 12 3 12.8954 3 14V19C3 20.1046 3.89543 21 5 21H7V12Z" fill="#212121"/>
</svg>
