<svg width="24" height="24" viewBox="0 0 24 24" fill="none" xmlns="http://www.w3.org/2000/svg">
<path fill-rule="evenodd" clip-rule="evenodd" d="M12.9316 13.5659C13.184 13.3135 13.5518 13.2148 13.8967 13.3069C15.5677 13.7531 17.4202 13.3199 18.7279 12.0122C20.1767 10.5634 20.5518 8.44496 19.8482 6.64929L18.0208 8.47661C17.2398 9.25766 15.9735 9.25766 15.1924 8.47661C14.4114 7.69556 14.4114 6.42923 15.1924 5.64818L17.0197 3.82086C15.224 3.11721 13.1056 3.49234 11.6569 4.94109C10.3491 6.24885 9.91592 8.10135 10.3622 9.77234C10.4543 10.1172 10.3555 10.485 10.1031 10.7375L4.58579 16.2548C3.80474 17.0358 3.80474 18.3022 4.58579 19.0832C5.36684 19.8643 6.63316 19.8643 7.41421 19.0832L12.9316 13.5659ZM13.6387 14.273C15.6404 14.8076 17.8647 14.2896 19.435 12.7193C21.2454 10.9089 21.657 8.22937 20.6699 6.02377C20.4173 5.45935 19.6851 5.39811 19.2479 5.83537L17.3137 7.7695C16.9232 8.16003 16.29 8.16003 15.8995 7.7695C15.509 7.37898 15.509 6.74581 15.8995 6.35529L17.8336 4.42116C18.2709 3.9839 18.2097 3.25175 17.6452 2.99913C15.4396 2.01196 12.7601 2.42358 10.9497 4.23398C9.37937 5.80436 8.86146 8.02865 9.39602 10.0304L3.87868 15.5477C2.70711 16.7193 2.70711 18.6188 3.87868 19.7903C5.05025 20.9619 6.94975 20.9619 8.12132 19.7903L13.6387 14.273Z" fill="#212121"/>
</svg>
