<svg width="24" height="24" viewBox="0 0 24 24" fill="none" xmlns="http://www.w3.org/2000/svg">
<path d="M21.4621 17.1914C21.4377 17.2504 21.4015 17.3056 21.3536 17.3536C21.3056 17.4015 21.2504 17.4377 21.1914 17.4621C21.1378 17.4842 21.0811 17.4967 21.024 17.4994C21.016 17.4998 21.008 17.5 21 17.5C20.9998 17.5 21.0002 17.5 21 17.5H16C15.7239 17.5 15.5 17.2761 15.5 17C15.5 16.7239 15.7239 16.5 16 16.5H19.7929L13.3536 10.0607C13.1583 9.8654 12.8417 9.8654 12.6464 10.0607L10.0607 12.6464C9.47487 13.2322 8.52513 13.2322 7.93934 12.6464L2.64645 7.35355C2.45118 7.15829 2.45118 6.84171 2.64645 6.64645C2.84171 6.45118 3.15829 6.45118 3.35355 6.64645L8.64645 11.9393C8.84171 12.1346 9.15829 12.1346 9.35355 11.9393L11.9393 9.35355C12.5251 8.76777 13.4749 8.76777 14.0607 9.35355L20.5 15.7929V12C20.5 11.7239 20.7239 11.5 21 11.5C21.2761 11.5 21.5 11.7239 21.5 12V17C21.5 17.0678 21.4865 17.1324 21.4621 17.1914Z" fill="#212121"/>
</svg>
