<svg width="24" height="24" viewBox="0 0 24 24" fill="none" xmlns="http://www.w3.org/2000/svg">
<path d="M21.4621 6.80861C21.4377 6.74964 21.4015 6.69439 21.3536 6.64645C21.3056 6.59851 21.2504 6.56234 21.1914 6.53794C21.1324 6.51349 21.0678 6.5 21 6.5H16C15.7239 6.5 15.5 6.72386 15.5 7C15.5 7.27614 15.7239 7.5 16 7.5H19.7929L13.3536 13.9393C13.1583 14.1346 12.8417 14.1346 12.6464 13.9393L10.0607 11.3536C9.47487 10.7678 8.52513 10.7678 7.93934 11.3536L2.64645 16.6464C2.45118 16.8417 2.45118 17.1583 2.64645 17.3536C2.84171 17.5488 3.15829 17.5488 3.35355 17.3536L8.64645 12.0607C8.84171 11.8654 9.15829 11.8654 9.35355 12.0607L11.9393 14.6464C12.5251 15.2322 13.4749 15.2322 14.0607 14.6464L20.5 8.20711V12C20.5 12.2761 20.7239 12.5 21 12.5C21.2761 12.5 21.5 12.2761 21.5 12V7C21.5 6.93221 21.4865 6.86756 21.4621 6.80861Z" fill="#212121"/>
</svg>
