<svg width="24" height="24" viewBox="0 0 24 24" fill="none" xmlns="http://www.w3.org/2000/svg">
<path d="M3.5 12C3.5 7.30558 7.30558 3.5 12 3.5C15.0362 3.5 17.6521 5.09255 19.147 7.49603L16.5015 7.48828C16.2253 7.48747 16.0008 7.71068 16 7.98682C15.9992 8.26296 16.2224 8.48747 16.4985 8.48828L19.9593 8.49842C19.9855 8.50058 20.012 8.50068 20.0385 8.49865L20.4985 8.5C20.6314 8.50039 20.7589 8.44788 20.853 8.35407C20.9471 8.26026 21 8.13286 21 8L21 4C21 3.72386 20.7761 3.5 20.5 3.5C20.2239 3.5 20 3.72386 20 4L20 6.97413C18.3334 4.29095 15.4053 2.5 12 2.5C6.75329 2.5 2.5 6.75329 2.5 12C2.5 17.2467 6.75329 21.5 12 21.5C15.7348 21.5 18.8957 19.3456 20.4478 16.2225C20.5707 15.9752 20.4698 15.6751 20.2225 15.5522C19.9752 15.4294 19.6751 15.5302 19.5522 15.7775C18.1589 18.5813 15.3326 20.5 12 20.5C7.30558 20.5 3.5 16.6944 3.5 12Z" fill="#212121"/>
<path fill-rule="evenodd" clip-rule="evenodd" d="M12 7.5C12.2761 7.5 12.5 7.72386 12.5 8V11.5858C12.5 11.7184 12.5527 11.8456 12.6464 11.9393L14.3536 13.6464C14.5488 13.8417 14.5488 14.1583 14.3536 14.3536C14.1583 14.5488 13.8417 14.5488 13.6464 14.3536L11.9393 12.6464C11.658 12.3651 11.5 11.9836 11.5 11.5858V8C11.5 7.72386 11.7239 7.5 12 7.5Z" fill="#212121"/>
</svg>
