<svg width="24" height="24" viewBox="0 0 24 24" fill="none" xmlns="http://www.w3.org/2000/svg">
<path fill-rule="evenodd" clip-rule="evenodd" d="M2 5C2 3.34315 3.34315 2 5 2H19C20.6569 2 22 3.34315 22 5V19C22 20.6569 20.6569 22 19 22H5C3.34315 22 2 20.6569 2 19V5ZM5 3H19C20.1046 3 21 3.89543 21 5V8H3V5C3 3.89543 3.89543 3 5 3ZM3 9V19C3 20.1046 3.89543 21 5 21H19C20.1046 21 21 20.1046 21 19V9H3Z" fill="#212121"/>
<path d="M6 5.5C6 5.77614 5.77614 6 5.5 6C5.22386 6 5 5.77614 5 5.5C5 5.22386 5.22386 5 5.5 5C5.77614 5 6 5.22386 6 5.5Z" fill="#212121"/>
<path d="M8 5.5C8 5.77614 7.77614 6 7.5 6C7.22386 6 7 5.77614 7 5.5C7 5.22386 7.22386 5 7.5 5C7.77614 5 8 5.22386 8 5.5Z" fill="#212121"/>
<path d="M10 5.5C10 5.77614 9.77614 6 9.5 6C9.22386 6 9 5.77614 9 5.5C9 5.22386 9.22386 5 9.5 5C9.77614 5 10 5.22386 10 5.5Z" fill="#212121"/>
<path fill-rule="evenodd" clip-rule="evenodd" d="M15.1464 17.0678C14.9512 16.8725 14.9512 16.5559 15.1464 16.3607L16.5072 14.9999L15.1464 13.6392C14.9512 13.4439 14.9512 13.1274 15.1464 12.9321C15.3417 12.7368 15.6583 12.7368 15.8536 12.9321L17.5678 14.6464C17.7631 14.8417 17.7631 15.1582 17.5678 15.3535L15.8536 17.0678C15.6583 17.263 15.3417 17.263 15.1464 17.0678Z" fill="#212121"/>
<path fill-rule="evenodd" clip-rule="evenodd" d="M8.85355 17.0678C9.04882 16.8725 9.04882 16.5559 8.85355 16.3607L7.49282 14.9999L8.85355 13.6392C9.04881 13.4439 9.04881 13.1274 8.85355 12.9321C8.65829 12.7368 8.34171 12.7368 8.14645 12.9321L6.43216 14.6464C6.2369 14.8417 6.2369 15.1582 6.43216 15.3535L8.14645 17.0678C8.34171 17.263 8.65829 17.263 8.85355 17.0678Z" fill="#212121"/>
<path fill-rule="evenodd" clip-rule="evenodd" d="M12.9945 11.5192C12.729 11.4434 12.4523 11.5971 12.3764 11.8626L10.6621 17.8626C10.5863 18.1282 10.74 18.4049 11.0055 18.4808C11.271 18.5566 11.5478 18.4029 11.6236 18.1374L13.3379 12.1374C13.4138 11.8718 13.26 11.5951 12.9945 11.5192Z" fill="#212121"/>
</svg>
