<svg width="24" height="24" viewBox="0 0 24 24" fill="none" xmlns="http://www.w3.org/2000/svg">
<path fill-rule="evenodd" clip-rule="evenodd" d="M9.9778 4.9494C9.75196 3.89545 8.24805 3.89544 8.0222 4.94941L6.82767 10.5238C6.58067 11.6765 5.56201 12.5 4.38317 12.5H3C2.72386 12.5 2.5 12.2762 2.5 12C2.5 11.7239 2.72386 11.5 3 11.5H4.38317C5.09048 11.5 5.70167 11.0059 5.84987 10.3143L7.04439 4.73988C7.49609 2.63196 10.5039 2.63195 10.9556 4.73988L14.0222 19.0506C14.248 20.1046 15.752 20.1046 15.9778 19.0506L17.1723 13.4762C17.4193 12.3235 18.438 11.5 19.6168 11.5H21C21.2761 11.5 21.5 11.7239 21.5 12C21.5 12.2762 21.2761 12.5 21 12.5H19.6168C18.9095 12.5 18.2983 12.9941 18.1501 13.6857L16.9556 19.2602C16.5039 21.3681 13.4961 21.3681 13.0444 19.2602L9.9778 4.9494Z" fill="#FF8303"/>
</svg>
