<svg width="24" height="24" viewBox="0 0 24 24" fill="none" xmlns="http://www.w3.org/2000/svg">
<path d="M9.64946 6.85874C9.85235 6.85874 10.0168 6.69427 10.0168 6.49138C10.0168 6.2885 9.85235 6.12402 9.64946 6.12402C9.44658 6.12402 9.2821 6.2885 9.2821 6.49138C9.2821 6.69427 9.44658 6.85874 9.64946 6.85874Z" fill="#212121"/>
<path d="M14.498 6.9896C14.7009 6.9896 14.8653 6.82513 14.8653 6.62224C14.8653 6.41936 14.7009 6.25488 14.498 6.25488C14.2951 6.25488 14.1306 6.41936 14.1306 6.62224C14.1306 6.82513 14.2951 6.9896 14.498 6.9896Z" fill="#212121"/>
<path d="M13.6126 8.45544L12.8152 7.658C12.5975 7.44027 12.3079 7.32031 12 7.32031C11.6921 7.32031 11.4025 7.44022 11.1848 7.658L10.3874 8.45544C10.2567 8.58608 10.2435 8.7935 10.3564 8.93975L11.7093 10.6913C11.7788 10.7814 11.8862 10.8342 12 10.8342C12.1139 10.8342 12.2212 10.7814 12.2908 10.6913L13.6436 8.93975C13.7566 8.7935 13.7433 8.58613 13.6126 8.45544ZM12 9.86586L11.1354 8.74648L11.7044 8.17752C11.7833 8.09853 11.8883 8.05508 12 8.05508C12.1117 8.05508 12.2167 8.09858 12.2956 8.17752L12.8646 8.74648L12 9.86586Z" fill="#212121"/>
<path d="M22.6147 12.7918C22.6075 12.656 22.526 12.5352 22.4027 12.4778C22.2793 12.4205 22.1343 12.4361 22.026 12.5182L20.6459 13.5646C20.8209 11.551 19.8768 10.5083 19.4892 10.1701C19.4486 8.37192 19.0344 6.63891 18.2851 5.14744C18.194 4.96612 17.9731 4.89295 17.7919 4.98408C17.6106 5.07516 17.5375 5.29594 17.6285 5.4772C18.3494 6.91209 18.7395 8.59055 18.758 10.3328L18.238 13.5739L17.1167 12.278C17.0413 12.1909 16.9291 12.144 16.8144 12.1518C16.6995 12.1595 16.5948 12.2207 16.5317 12.3171L14.6428 15.2002L12.5999 12.5848C12.5303 12.4957 12.4235 12.4436 12.3105 12.4436C12.1974 12.4436 12.0906 12.4957 12.021 12.5848L9.97811 15.2002L8.08928 12.3171C8.02614 12.2207 7.92142 12.1595 7.80653 12.1518C7.69155 12.1443 7.57966 12.1908 7.50424 12.278L6.38599 13.5703L5.86239 10.329C5.88874 7.98445 6.58047 5.78981 7.81211 4.14675C9.02519 2.52825 10.6227 1.63687 12.3104 1.63687C14.0675 1.63687 15.7114 2.59172 16.9394 4.32562C17.0567 4.49119 17.2859 4.53042 17.4515 4.41309C17.617 4.29586 17.6562 4.06655 17.5389 3.90103C16.8789 2.96906 16.0996 2.23448 15.2226 1.71778C14.6297 1.36842 14.011 1.13091 13.3742 1.00598C13.7273 0.827906 14.1162 0.734719 14.5171 0.734719H14.7186C14.9215 0.734719 15.0859 0.570234 15.0859 0.367359C15.0859 0.164484 14.9215 0 14.7186 0H14.5171C13.8416 0 13.1919 0.204656 12.6383 0.591797L12.3104 0.821109L11.9825 0.591797C11.4288 0.204656 10.7792 0 10.1037 0H9.90217C9.69925 0 9.53481 0.164484 9.53481 0.367359C9.53481 0.570234 9.69925 0.734719 9.90217 0.734719H10.1037C10.5041 0.734719 10.8928 0.827719 11.2456 1.00547C9.72616 1.30298 8.32605 2.23603 7.22411 3.70613C5.92577 5.4382 5.18552 7.72856 5.1303 10.1712C4.74189 10.5106 3.80008 11.5532 3.97497 13.5646L2.59488 12.5182C2.48641 12.4361 2.34152 12.4205 2.21819 12.4778C2.09486 12.5352 2.0132 12.656 2.00613 12.7919C2.00345 12.8438 1.94336 14.0833 2.26436 15.7366C2.56211 17.2701 3.2597 19.4591 4.89217 21.1791C6.66869 23.0509 9.16455 24 12.3103 24C15.2006 24 17.5485 23.1959 19.2889 21.61C19.4388 21.4734 19.4496 21.2411 19.313 21.0911C19.1763 20.9411 18.944 20.9304 18.794 21.067C17.1933 22.5256 15.0118 23.2653 12.3103 23.2653C9.37614 23.2653 7.06075 22.3945 5.42861 20.6771C3.20974 18.3424 2.81092 15.0102 2.74694 13.5556L5.26427 15.4641L5.53867 15.6721L6.29092 14.8027L7.74128 13.1267L9.64455 16.0319C9.70947 16.131 9.81817 16.1926 9.93658 16.1976C10.0544 16.2027 10.1684 16.1501 10.2413 16.0567L12.3104 13.4078L14.3795 16.0567C14.4524 16.1501 14.5657 16.2022 14.6842 16.1976C14.8026 16.1926 14.9113 16.131 14.9763 16.0319L16.8795 13.1267L18.0861 14.5211L19.0821 15.6721L19.3564 15.4641L21.8748 13.5548C21.817 14.9014 21.4732 17.8594 19.6538 20.1461C19.5274 20.3049 19.5537 20.5359 19.7125 20.6623C19.8714 20.7886 20.1024 20.7623 20.2287 20.6035C21.5867 18.8968 22.1629 16.8649 22.4073 15.4609C22.6711 13.9449 22.6171 12.8382 22.6147 12.7918ZM5.43372 14.6706L4.81183 14.199C4.50953 12.7632 4.81844 11.8283 5.15205 11.2811C5.21795 12.3354 5.41277 13.3552 5.73344 14.3243L5.43372 14.6706ZM19.8089 14.199L19.187 14.6706L18.8874 14.3244C19.2079 13.3553 19.4027 12.3356 19.4687 11.2815C19.8025 11.829 20.1111 12.7637 19.8089 14.199Z" fill="#212121"/>
</svg>
