<svg width="24" height="24" viewBox="0 0 24 24" fill="none" xmlns="http://www.w3.org/2000/svg">
<path d="M9.64946 6.85874C9.85235 6.85874 10.0168 6.69427 10.0168 6.49138C10.0168 6.2885 9.85235 6.12402 9.64946 6.12402C9.44658 6.12402 9.2821 6.2885 9.2821 6.49138C9.2821 6.69427 9.44658 6.85874 9.64946 6.85874Z" fill="#FF8303"/>
<path d="M14.4979 6.9896C14.7008 6.9896 14.8653 6.82513 14.8653 6.62224C14.8653 6.41936 14.7008 6.25488 14.4979 6.25488C14.295 6.25488 14.1306 6.41936 14.1306 6.62224C14.1306 6.82513 14.295 6.9896 14.4979 6.9896Z" fill="#FF8303"/>
<path d="M13.6126 8.45544L12.8151 7.658C12.5974 7.44027 12.3079 7.32031 11.9999 7.32031C11.692 7.32031 11.4025 7.44022 11.1847 7.658L10.3873 8.45544C10.2567 8.58608 10.2434 8.7935 10.3564 8.93975L11.7092 10.6913C11.7788 10.7814 11.8861 10.8342 12 10.8342C12.1138 10.8342 12.2212 10.7814 12.2907 10.6913L13.6436 8.93975C13.7565 8.7935 13.7432 8.58613 13.6126 8.45544ZM11.9999 9.86586L11.1353 8.74648L11.7043 8.17752C11.7832 8.09853 11.8883 8.05508 11.9999 8.05508C12.1116 8.05508 12.2166 8.09858 12.2956 8.17752L12.8645 8.74648L11.9999 9.86586Z" fill="#FF8303"/>
<path d="M22.3044 12.7918C22.2972 12.656 22.2156 12.5352 22.0923 12.4778C21.9689 12.4205 21.8239 12.4361 21.7156 12.5182L20.3355 13.5646C20.5105 11.551 19.5665 10.5083 19.1789 10.1701C19.1382 8.37192 18.724 6.63891 17.9747 5.14744C17.8836 4.96613 17.6627 4.89295 17.4815 4.98408C17.3003 5.07516 17.2271 5.29594 17.3182 5.4772C18.0391 6.91209 18.4292 8.59055 18.4476 10.3328L17.9277 13.5739L16.8063 12.278C16.7309 12.1909 16.6187 12.144 16.504 12.1518C16.3891 12.1595 16.2844 12.2207 16.2213 12.3171L14.3325 15.2002L12.2896 12.5848C12.2199 12.4957 12.1131 12.4436 12.0001 12.4436C11.887 12.4436 11.7802 12.4957 11.7107 12.5848L9.66775 15.2002L7.77892 12.3171C7.71578 12.2207 7.61106 12.1595 7.49617 12.1518C7.38118 12.1443 7.26929 12.1908 7.19387 12.278L6.07562 13.5703L5.55203 10.329C5.57837 7.98445 6.27011 5.78981 7.50175 4.14675C8.71482 2.52825 10.3124 1.63687 12 1.63687C13.7572 1.63687 15.4011 2.59172 16.6291 4.32562C16.7463 4.49119 16.9755 4.53042 17.1411 4.41309C17.3067 4.29586 17.3459 4.06655 17.2285 3.90103C16.5685 2.96906 15.7892 2.23448 14.9123 1.71778C14.3193 1.36842 13.7006 1.13091 13.0638 1.00598C13.4169 0.827906 13.8058 0.734719 14.2067 0.734719H14.4082C14.6111 0.734719 14.7756 0.570234 14.7756 0.367359C14.7756 0.164484 14.6111 0 14.4082 0H14.2067C13.5312 0 12.8815 0.204656 12.3279 0.591797L12 0.821109L11.6721 0.591797C11.1185 0.204656 10.4688 0 9.79332 0H9.59181C9.38889 0 9.22445 0.164484 9.22445 0.367359C9.22445 0.570234 9.38889 0.734719 9.59181 0.734719H9.79332C10.1938 0.734719 10.5824 0.827719 10.9352 1.00547C9.41579 1.30298 8.01568 2.23603 6.91375 3.70613C5.6154 5.4382 4.87515 7.72856 4.81993 10.1712C4.43153 10.5106 3.48972 11.5532 3.66461 13.5646L2.28451 12.5182C2.17604 12.4361 2.03115 12.4205 1.90782 12.4778C1.7845 12.5352 1.70284 12.656 1.69576 12.7919C1.69309 12.8438 1.633 14.0833 1.954 15.7366C2.25175 17.2701 2.94934 19.4591 4.58181 21.1791C6.35833 23.0509 8.85418 24 12 24C14.8902 24 17.2382 23.1959 18.9785 21.61C19.1285 21.4734 19.1393 21.2411 19.0026 21.0911C18.8659 20.9411 18.6336 20.9304 18.4836 21.067C16.8829 22.5256 14.7015 23.2653 12 23.2653C9.06578 23.2653 6.75039 22.3945 5.11825 20.6771C2.89937 18.3424 2.50056 15.0102 2.43657 13.5556L4.9539 15.4641C4.9539 15.4641 4.95395 15.4641 4.954 15.4641L5.22831 15.6721L5.98056 14.8027L7.43092 13.1267L9.33418 16.0319C9.39911 16.131 9.50781 16.1926 9.62621 16.1976C9.74401 16.2027 9.85801 16.1501 9.93095 16.0567L12 13.4078L14.0691 16.0567C14.142 16.1501 14.2553 16.2022 14.3739 16.1976C14.4923 16.1926 14.601 16.131 14.6659 16.0319L16.5692 13.1267L17.7758 14.5211L18.7718 15.6721L19.0461 15.4641L19.0461 15.4641L21.5644 13.5548C21.5067 14.9014 21.1628 17.8594 19.3434 20.1461C19.2171 20.3049 19.2434 20.5359 19.4021 20.6623C19.561 20.7886 19.792 20.7623 19.9183 20.6035C21.2763 18.8968 21.8525 16.8649 22.0969 15.4609C22.3607 13.9449 22.3067 12.8382 22.3044 12.7918ZM5.12336 14.6706L4.50147 14.199C4.19917 12.7632 4.50807 11.8282 4.84168 11.2811C4.90759 12.3354 5.1024 13.3552 5.42307 14.3243L5.12336 14.6706ZM19.4986 14.199L18.8767 14.6706L18.577 14.3244C18.8975 13.3553 19.0923 12.3356 19.1583 11.2815C19.4922 11.829 19.8007 12.7637 19.4986 14.199Z" fill="#FF8303"/>
</svg>
