<svg width="24" height="24" viewBox="0 0 24 24" fill="none" xmlns="http://www.w3.org/2000/svg">
<path fill-rule="evenodd" clip-rule="evenodd" d="M5 22C3.34315 22 2 20.6569 2 19V11.3361C2 10.4856 2.36096 9.67513 2.99311 9.1062L9.9931 2.80621C11.134 1.77938 12.866 1.77938 14.0069 2.8062L21.0069 9.1062C21.639 9.67513 22 10.4856 22 11.3361V19C22 20.6569 20.6569 22 19 22H5ZM21 11.3361V19C21 20.1046 20.1046 21 19 21H16V15C16 13.3431 14.6569 12 13 12H11C9.34315 12 8 13.3431 8 15V21H5C3.89543 21 3 20.1046 3 19V11.3361C3 10.7691 3.24064 10.2288 3.66207 9.8495L10.6621 3.5495C11.4227 2.86495 12.5773 2.86495 13.3379 3.5495L20.3379 9.8495C20.7594 10.2288 21 10.7691 21 11.3361ZM9 21V15C9 13.8954 9.89543 13 11 13H13C14.1046 13 15 13.8954 15 15V21H9Z" fill="#FF8303"/>
</svg>
