<svg width="24" height="24" viewBox="0 0 24 24" fill="none" xmlns="http://www.w3.org/2000/svg">
<path fill-rule="evenodd" clip-rule="evenodd" d="M12 11C14.2091 11 16 9.20914 16 7C16 4.79086 14.2091 3 12 3C9.79086 3 8 4.79086 8 7C8 9.20914 9.79086 11 12 11ZM12 12C14.7614 12 17 9.76142 17 7C17 4.23858 14.7614 2 12 2C9.23858 2 7 4.23858 7 7C7 9.76142 9.23858 12 12 12Z" fill="#212121"/>
<path fill-rule="evenodd" clip-rule="evenodd" d="M9 15.5C6.51472 15.5 4.5 17.5147 4.5 20V21C4.5 21.2761 4.27614 21.5 4 21.5C3.72386 21.5 3.5 21.2761 3.5 21V20C3.5 16.9624 5.96243 14.5 9 14.5H15C18.0376 14.5 20.5 16.9624 20.5 20V21C20.5 21.2761 20.2761 21.5 20 21.5C19.7239 21.5 19.5 21.2761 19.5 21V20C19.5 17.5147 17.4853 15.5 15 15.5H9Z" fill="#212121"/>
</svg>
